<?xml version="1.0" encoding="UTF-8" standalone="no"?>
<!-- Created with Inkscape (http://www.inkscape.org/) -->

<svg
   version="1.1"
   id="svg1"
   width="1536"
   height="1536"
   viewBox="0 0 1536 1536"
   xmlns="http://www.w3.org/2000/svg"
   xmlns:svg="http://www.w3.org/2000/svg">
  <defs
     id="defs1" />
  <g
     id="g1">
    <path
       style="fill:#ffffff"
       d="m 600.56366,925.85482 c -7.66499,-0.49414 -18.07009,-1.76167 -23.12246,-2.81673 -5.05236,-1.05506 -12.00888,-3.06528 -15.45892,-4.46716 -3.45005,-1.40188 -8.44502,-3.94278 -11.09995,-5.64644 -2.65493,-1.70366 -7.31363,-5.78327 -10.35266,-9.06579 -3.40329,-3.67596 -7.02824,-9.11583 -9.43805,-14.16346 -2.15189,-4.50738 -4.82374,-12.02024 -5.93744,-16.69524 -1.11371,-4.675 -2.98068,-13.675 -4.14884,-20 -1.16816,-6.325 -3.03579,-14.65 -4.1503,-18.5 -1.11451,-3.85 -3.55729,-10.21581 -5.42839,-14.14625 -2.28619,-4.80237 -5.00692,-8.58921 -8.29521,-11.54566 -2.69126,-2.41968 -6.6343,-4.98753 -8.76232,-5.70634 -2.142,-0.72354 -10.65659,-1.53808 -19.07451,-1.82474 -15.20539,-0.5178 -15.20539,-0.5178 -15.5,-28.1474 C 459.63257,757.93332 459.725,743.025 460,740 c 0.5,-5.5 0.5,-5.5 15.5,-6.0966 8.25,-0.32813 15.9,-0.93237 17,-1.34277 1.1,-0.4104 3.95641,-1.69776 6.34758,-2.86081 2.39116,-1.16304 6.08893,-4.09292 8.21727,-6.51083 2.25065,-2.55688 5.09541,-7.59536 6.79931,-12.04259 1.61129,-4.20552 4.55863,-15.0714 6.54964,-24.1464 1.99102,-9.075 4.55289,-20.55 5.69305,-25.5 1.14016,-4.95 3.67664,-12.375 5.63661,-16.5 2.53455,-5.33425 5.46844,-9.40311 10.16007,-14.09046 5.02758,-5.02301 8.85593,-7.69728 16.09647,-11.24412 5.225,-2.55951 12.14616,-5.32195 15.38035,-6.13876 3.23419,-0.81681 10.43419,-1.92586 16,-2.46454 5.56581,-0.53868 15.85715,-1.28397 22.86965,-1.6562 12.75,-0.67677 12.75,-0.67677 12.75,11.45865 0,10.55466 -0.2455,12.38093 -1.88471,14.02014 -1.45454,1.45454 -4.02232,2.03766 -11.25,2.55478 -5.15091,0.36854 -11.84029,1.14803 -14.86529,1.73221 -3.025,0.58418 -7.52846,2.08685 -10.0077,3.33928 -2.47923,1.25243 -5.72531,3.49476 -7.2135,4.98295 -1.4882,1.4882 -3.79704,4.57337 -5.13077,6.85594 -1.33372,2.28257 -3.35245,7.16156 -4.48606,10.8422 -1.13362,3.68064 -4.10815,15.93676 -6.61008,27.23582 -2.50193,11.29907 -5.69212,23.39931 -7.08931,26.88943 -1.39719,3.49012 -4.76729,9.459 -7.48911,13.26418 -2.72182,3.80517 -7.93052,9.47716 -11.57488,12.60441 -3.64436,3.12725 -9.79688,7.35211 -13.67228,9.38857 -3.8754,2.03646 -10.90118,4.76328 -15.61286,6.05959 -4.71168,1.29631 -12.07886,2.64984 -16.37153,3.00783 -4.29267,0.358 -8.05805,1.0606 -8.36753,1.56134 -0.30947,0.50073 -0.3015,1.95103 0.0177,3.22287 0.50328,2.00525 1.4125,2.4043 6.84414,3.00386 3.44507,0.38027 9.4596,1.34354 13.36562,2.14058 3.90602,0.79704 9.97578,2.61695 13.48835,4.04424 3.51257,1.42728 9.67757,4.87018 13.7,7.65088 4.02242,2.7807 9.30586,7.27181 11.74098,9.98024 2.43511,2.70843 6.04116,7.58084 8.01345,10.82758 1.97229,3.24674 4.65522,8.53456 5.96206,11.75072 1.30684,3.21616 3.76941,12.55891 5.47236,20.76168 1.70296,8.20276 4.43309,19.54897 6.06695,25.21381 1.63387,5.66483 4.10733,12.54279 5.49658,15.28435 1.38926,2.74156 4.40504,6.80828 6.70174,9.03715 2.2967,2.22887 5.99378,4.98283 8.21574,6.1199 3.23201,1.65395 7.03969,2.24229 19.03993,2.94191 8.25,0.48098 15.57526,1.07734 16.27835,1.32524 0.97279,0.343 1.21182,3.74234 1,14.22125 C 624.5,926.5 624.5,926.5 619.5,926.62663 c -2.75,0.0696 -11.27135,-0.27767 -18.93634,-0.77181 z m 314.04333,-0.43661 c -0.33385,-0.86998 -0.60085,-6.15748 -0.59334,-11.75 0.008,-5.59251 0.26749,-11.11375 0.57772,-12.2694 0.51738,-1.9273 1.48867,-2.15103 11.73635,-2.70336 6.14475,-0.3312 13.64728,-1.12913 16.67228,-1.77319 3.025,-0.64406 7.525,-2.20117 10,-3.46024 2.475,-1.25907 6.15715,-4.0156 8.18255,-6.12562 2.0254,-2.11002 4.8198,-6.11572 6.20978,-8.90156 1.38998,-2.78584 3.62926,-9.08584 4.97618,-14 1.34691,-4.91416 3.61009,-15.12315 5.02927,-22.68663 1.41918,-7.56349 3.78508,-17.39699 5.25755,-21.85223 1.47248,-4.45524 4.44486,-10.86694 6.6053,-14.24821 2.16043,-3.38127 6.24811,-8.55143 9.08372,-11.48924 2.83565,-2.93781 7.65615,-7.05797 10.71225,-9.1559 3.0561,-2.09794 8.2311,-4.92982 11.5,-6.29307 3.2689,-1.36325 9.7684,-3.39651 14.4434,-4.51836 4.675,-1.12185 11.5375,-2.35123 15.25,-2.73196 6.75,-0.69223 6.75,-0.69223 6.75,-3.92599 0,-3.23376 0,-3.23376 -8.75,-3.866 -4.8125,-0.34773 -11.9877,-1.53482 -15.9449,-2.63798 -3.9572,-1.10315 -9.749,-3.13529 -12.8707,-4.51585 -3.1217,-1.38056 -8.568,-4.57396 -12.1029,-7.09643 -3.535,-2.52248 -8.85384,-7.52827 -11.81976,-11.12399 -2.96592,-3.59572 -6.94999,-9.52012 -8.85349,-13.16534 -1.90351,-3.64521 -4.3943,-9.67687 -5.53509,-13.40369 -1.14079,-3.72681 -3.24852,-12.92812 -4.68384,-20.44734 -1.43532,-7.51922 -3.96525,-17.74501 -5.62207,-22.72397 -1.65682,-4.97896 -4.19082,-11.23759 -5.63112,-13.90807 -1.4403,-2.67047 -4.61212,-6.61006 -7.04848,-8.75463 -2.47892,-2.18203 -6.58528,-4.53935 -9.32432,-5.35275 -2.692,-0.79944 -10.54243,-1.96408 -17.44538,-2.58809 -6.90296,-0.62401 -13.40968,-0.90996 -14.45939,-0.63546 -1.65254,0.43215 -1.92533,-0.092 -2.03356,-3.90728 -0.0688,-2.42351 -0.125,-5.98138 -0.125,-7.90638 0,-1.925 0.0562,-6.45842 0.125,-10.07426 0.125,-6.57426 0.125,-6.57426 15.375,-5.93023 8.3875,0.35421 18.85,1.08512 23.25,1.62425 4.4,0.53912 11.825,2.12032 16.5,3.51379 4.675,1.39347 11.425,4.14412 15,6.11255 3.63965,2.00403 9.52191,6.63742 13.36714,10.52914 4.92286,4.98238 7.79606,8.97094 10.14816,14.08746 1.8045,3.92552 4.2015,10.2873 5.3266,14.1373 1.1252,3.85 2.7616,11.05 3.6365,16 0.8749,4.95 2.0652,11.25 2.6451,14 0.5799,2.75 2.1858,8.81733 3.5686,13.48296 1.3829,4.66562 3.7812,10.99262 5.3296,14.05998 1.5484,3.06737 4.7028,7.2823 7.0098,9.36653 2.307,2.08422 6.0561,4.63484 8.3315,5.66805 3.4231,1.5544 6.639,1.88499 18.637,1.91583 7.975,0.0205 15.0688,0.39836 15.7641,0.83969 0.9854,0.62548 1.2059,7.95375 1,33.23469 C 1079.5,800.5 1079.5,800.5 1064,801.01387 c -14.5142,0.48119 -15.8495,0.69312 -20.9958,3.33218 -3.0227,1.55007 -6.7435,4.24383 -8.2686,5.98613 -1.525,1.7423 -4.3603,6.23556 -6.3006,9.98503 -2.1192,4.09511 -4.4865,11.08281 -5.9288,17.5 -1.3205,5.87553 -3.3564,15.78873 -4.5242,22.02932 -1.1678,6.2406 -3.2734,14.7906 -4.6791,19 -1.4057,4.20941 -3.588,9.70511 -4.8495,12.21266 -1.2615,2.50756 -4.1278,6.87952 -6.3695,9.71547 -2.24171,2.83596 -6.6018,7.02233 -9.68911,9.30306 -3.08731,2.28073 -8.43338,5.42547 -11.88016,6.98832 -3.44678,1.56284 -9.81012,3.7789 -14.14075,4.92457 -4.33064,1.14566 -13.94888,2.73664 -21.37388,3.5355 -7.425,0.79886 -17.16436,1.4573 -21.64301,1.46318 -6.50958,0.009 -8.26477,-0.30659 -8.75,-1.57108 z M 625,873.03213 C 625,849 625,849 704.75,848.84204 c 43.8625,-0.0869 94.15,-0.19938 111.75,-0.25 31.944,-0.0919 32.00875,-0.0964 37,-2.56641 2.75,-1.3609 6.8,-4.32563 9,-6.58828 2.2,-2.26265 4.78973,-6.32418 5.75495,-9.02563 0.96522,-2.70145 1.75272,-7.41906 1.75,-10.48358 -0.003,-3.06452 -0.70437,-7.62456 -1.55923,-10.13341 -0.85485,-2.50885 -3.11644,-6.38659 -5.02575,-8.61719 -1.90931,-2.2306 -6.04739,-5.32057 -9.19572,-6.86659 C 848.5,791.5 848.5,791.5 765.5,790.93921 c -58.05666,-0.39225 -84.20209,-0.90674 -87,-1.71195 -2.2,-0.63315 -6.82693,-2.26551 -10.28206,-3.62747 -3.45514,-1.36197 -7.95514,-3.48025 -10,-4.7073 -2.04487,-1.22705 -6.72537,-4.62494 -10.40111,-7.55085 -3.67574,-2.92592 -8.8085,-8.08188 -11.40614,-11.4577 -2.59763,-3.37582 -6.26002,-9.25785 -8.13863,-13.07119 -1.87862,-3.81334 -4.09558,-9.22285 -4.92658,-12.02114 -0.83101,-2.79828 -1.87592,-8.70844 -2.32203,-13.13369 -0.44611,-4.42525 -0.43221,-12.40806 0.0309,-17.73959 0.62756,-7.22486 1.68898,-11.82345 4.16759,-18.05601 1.82908,-4.59928 5.0567,-10.96571 7.1725,-14.14763 2.1158,-3.18192 6.51111,-8.49119 9.76734,-11.79838 3.25624,-3.30718 8.64944,-7.7769 11.98489,-9.93271 3.33545,-2.15581 9.69972,-5.32155 14.14283,-7.035 4.44311,-1.71344 11.41019,-3.75283 15.48241,-4.53198 C 689.88496,639.247 710.689,639 803.08797,639 915,639 915,639 915,662.38055 c 0,23.38055 0,23.38055 -10.25,24.04284 -5.6375,0.36427 -55.7,0.55784 -111.25,0.43016 -82.34413,-0.18926 -101.73885,0.0159 -105,1.11068 -2.2,0.73854 -5.61231,2.3569 -7.5829,3.59635 -1.9706,1.23945 -4.7391,3.62759 -6.15221,5.30699 -1.41312,1.6794 -3.34532,5.08539 -4.29377,7.56887 -1.30763,3.424 -1.61548,6.51534 -1.27364,12.78949 0.26253,4.81844 1.12032,9.55188 2.05386,11.33361 0.88167,1.68275 3.54831,5.01452 5.92585,7.40393 2.37755,2.3894 6.22488,5.19155 8.54963,6.22699 4.03429,1.79687 7.95143,1.87739 86,1.76775 62.11334,-0.0873 82.97528,0.18373 86.77318,1.12711 2.75,0.68309 7.95945,2.43745 11.57657,3.89859 3.61711,1.46113 10.05228,5.05937 14.30039,7.99608 4.24811,2.93672 10.88109,8.72024 14.73996,12.85228 5.29902,5.67414 8.21148,9.97913 11.90037,17.59027 3.1574,6.51454 5.47897,13.06815 6.56639,18.53642 1.23484,6.20964 1.51241,10.8736 1.04384,17.53956 -0.35107,4.99432 -1.56522,12.42547 -2.69811,16.51367 -1.1329,4.08819 -3.84291,10.86041 -6.02225,15.04938 -2.17935,4.18897 -6.45216,10.63471 -9.49514,14.32386 -3.04298,3.68915 -8.31804,8.76055 -11.72236,11.26978 -3.40431,2.50923 -9.19521,6.07787 -12.86866,7.93033 -3.67345,1.85245 -9.97345,4.381 -14,5.61898 -7.321,2.25089 -7.321,2.25089 -122.071,2.55531 C 625,897.06425 625,897.06425 625,873.03213 Z"
       id="path1" />
  </g>
</svg>
